<svg width="24" height="24" viewBox="0 0 24 24" fill="none" xmlns="http://www.w3.org/2000/svg">
<path d="M19.6761 13.1173C19.5117 13.0762 19.3474 13.1173 19.2035 13.22C18.6694 13.672 18.053 14.0419 17.375 14.2884C16.7381 14.5349 16.0396 14.6582 15.2999 14.6582C13.6358 14.6582 12.1154 13.9802 11.0265 12.8913C9.9376 11.8024 9.2596 10.2821 9.2596 8.6179C9.2596 7.91936 9.38287 7.24136 9.58833 6.625C9.81432 5.96755 10.143 5.37174 10.5745 4.8581C10.7594 4.63211 10.7183 4.30338 10.4923 4.11847C10.3485 4.01575 10.1841 3.97466 10.0198 4.01575C8.27343 4.48829 6.75307 5.5361 5.66417 6.93318C4.61636 8.30972 4 10.015 4 11.8641C4 14.1035 4.90399 16.1375 6.38326 17.6167C7.86252 19.096 9.87596 20 12.1359 20C14.0261 20 15.7725 19.3426 17.1695 18.2536C18.5872 17.1442 19.6144 15.5622 20.0459 13.7542C20.1281 13.4666 19.9637 13.179 19.6761 13.1173Z" fill="rgb(0 0 0 / 85%)"/>
</svg>
