<?xml version="1.0" encoding="UTF-8"?>
<svg width="42px" height="42px" viewBox="0 0 42 42" version="1.1" xmlns="http://www.w3.org/2000/svg" xmlns:xlink="http://www.w3.org/1999/xlink">
    <title>Shape</title>
    <defs>
        <linearGradient x1="50.0008831%" y1="99.6566549%" x2="50.0008831%" y2="-0.126141639%" id="linearGradient-1">
            <stop stop-color="#7D5DF2" offset="0%"></stop>
            <stop stop-color="#60F9B6" offset="100%"></stop>
        </linearGradient>
    </defs>
    <g id="Page-1" stroke="none" stroke-width="1" fill="none" fill-rule="evenodd">
        <g id="Dashboard/-Details" transform="translate(-200.000000, -40.000000)" fill="url(#linearGradient-1)" fill-rule="nonzero">
            <g id="luna-logo-02-1" transform="translate(200.000000, 40.000000)">
                <path d="M21.007742,4.669 C17.775742,4.669 14.616742,5.627 11.929742,7.423 C9.24274203,9.217 7.14774203,11.77 5.90974203,14.756 C4.67374203,17.742 4.34974203,21.027 4.97974203,24.196 C5.61074203,27.366 7.16674203,30.278 9.45174203,32.563 C11.737742,34.848 14.648742,36.405 17.818742,37.035 C20.988742,37.665 24.273742,37.342 27.258742,36.105 C30.244742,34.869 32.796742,32.775 34.592742,30.087 C36.387742,27.4 37.346742,24.241 37.346742,21.009 C37.346742,16.676 35.624742,12.519 32.559742,9.456 C29.495742,6.391 25.339742,4.67 21.006742,4.669 L21.007742,4.669 Z M21.007742,35.017 C18.237742,35.017 15.529742,34.197 13.225742,32.657 C10.922742,31.119 9.12674203,28.932 8.06574203,26.373 C7.00574203,23.813 6.72774203,20.998 7.26774203,18.281 C7.80774203,15.564 9.14174203,13.068 11.100742,11.109 C13.058742,9.149 15.554742,7.815 18.270742,7.275 C20.987742,6.734 23.803742,7.011 26.363742,8.071 C28.923742,9.131 31.110742,10.925 32.649742,13.228 C34.189742,15.531 35.010742,18.239 35.011742,21.009 C35.011742,24.724 33.536742,28.286 30.910742,30.913 C28.283742,33.54 24.721742,35.017 21.007742,35.017 Z M21.007742,0.001 C16.852742,0.001 12.790742,1.234 9.33574203,3.541 C5.88174203,5.851 3.18874203,9.131 1.59874203,12.97 C0.00974203468,16.809 -0.407257965,21.033 0.403742035,25.107 C1.21374203,29.182 3.21474203,32.925 6.15374203,35.863 C9.09074203,38.801 12.833742,40.802 16.908742,41.613 C20.984742,42.423 25.208742,42.007 29.046742,40.417 C32.885742,38.827 36.166742,36.134 38.474742,32.679 C40.782742,29.225 42.014742,25.163 42.014742,21.009 C42.014742,18.249 41.471742,15.518 40.416742,12.969 C39.360742,10.419 37.813742,8.104 35.862742,6.153 C33.912742,4.203 31.595742,2.655 29.046742,1.599 C26.497742,0.544 23.766742,0 21.006742,0 L21.007742,0.001 Z M21.007742,39.685 C17.313742,39.685 13.703742,38.591 10.632742,36.539 C7.56174203,34.488 5.16774203,31.571 3.75374203,28.159 C2.33974203,24.747 1.96974203,20.993 2.68974203,17.37 C3.40974203,13.747 5.18874203,10.42 7.79974203,7.808 C10.410742,5.196 13.737742,3.418 17.359742,2.696 C20.982742,1.976 24.737742,2.345 28.149742,3.758 C31.562742,5.171 34.479742,7.564 36.530742,10.635 C38.583742,13.705 39.678742,17.315 39.679742,21.009 C39.679742,25.962 37.712742,30.711 34.210742,34.214 C30.709742,37.716 25.960742,39.684 21.007742,39.685 L21.007742,39.685 Z M21.007742,4.669 C17.775742,4.669 14.616742,5.627 11.929742,7.423 C9.24274203,9.217 7.14774203,11.77 5.90974203,14.756 C4.67374203,17.742 4.34974203,21.027 4.97974203,24.196 C5.61074203,27.366 7.16674203,30.278 9.45174203,32.563 C11.737742,34.848 14.648742,36.405 17.818742,37.035 C20.988742,37.665 24.273742,37.342 27.258742,36.105 C30.244742,34.869 32.796742,32.775 34.592742,30.087 C36.387742,27.4 37.346742,24.241 37.346742,21.009 C37.346742,16.676 35.624742,12.519 32.559742,9.456 C29.495742,6.391 25.339742,4.67 21.006742,4.669 L21.007742,4.669 Z M21.007742,35.017 C18.237742,35.017 15.529742,34.197 13.225742,32.657 C10.922742,31.119 9.12674203,28.932 8.06574203,26.373 C7.00574203,23.813 6.72774203,20.998 7.26774203,18.281 C7.80774203,15.564 9.14174203,13.068 11.100742,11.109 C13.058742,9.149 15.554742,7.815 18.270742,7.275 C20.987742,6.734 23.803742,7.011 26.363742,8.071 C28.923742,9.131 31.110742,10.925 32.649742,13.228 C34.189742,15.531 35.010742,18.239 35.011742,21.009 C35.011742,24.724 33.536742,28.286 30.910742,30.913 C28.283742,33.54 24.721742,35.017 21.007742,35.017 Z M21.007742,4.669 C17.775742,4.669 14.616742,5.627 11.929742,7.423 C9.24274203,9.217 7.14774203,11.77 5.90974203,14.756 C4.67374203,17.742 4.34974203,21.027 4.97974203,24.196 C5.61074203,27.366 7.16674203,30.278 9.45174203,32.563 C11.737742,34.848 14.648742,36.405 17.818742,37.035 C20.988742,37.665 24.273742,37.342 27.258742,36.105 C30.244742,34.869 32.796742,32.775 34.592742,30.087 C36.387742,27.4 37.346742,24.241 37.346742,21.009 C37.346742,16.676 35.624742,12.519 32.559742,9.456 C29.495742,6.391 25.339742,4.67 21.006742,4.669 L21.007742,4.669 Z M21.007742,35.017 C18.237742,35.017 15.529742,34.197 13.225742,32.657 C10.922742,31.119 9.12674203,28.932 8.06574203,26.373 C7.00574203,23.813 6.72774203,20.998 7.26774203,18.281 C7.80774203,15.564 9.14174203,13.068 11.100742,11.109 C13.058742,9.149 15.554742,7.815 18.270742,7.275 C20.987742,6.734 23.803742,7.011 26.363742,8.071 C28.923742,9.131 31.110742,10.925 32.649742,13.228 C34.189742,15.531 35.010742,18.239 35.011742,21.009 C35.011742,24.724 33.536742,28.286 30.910742,30.913 C28.283742,33.54 24.721742,35.017 21.007742,35.017 Z" id="Shape"></path>
            </g>
        </g>
    </g>
</svg>