<svg width="18" height="18" viewBox="0 0 18 18" fill="none" xmlns="http://www.w3.org/2000/svg">
<path fill-rule="evenodd" clip-rule="evenodd" d="M13.8696 2.09766C12.7471 2.09766 11.837 3.00769 11.837 4.13026C11.837 5.25284 12.7471 6.16287 13.8696 6.16287C14.9922 6.16287 15.9023 5.25284 15.9023 4.13026C15.9023 3.00769 14.9922 2.09766 13.8696 2.09766ZM10.337 4.13026C10.337 2.17926 11.9186 0.597656 13.8696 0.597656C15.8207 0.597656 17.4023 2.17926 17.4023 4.13026C17.4023 6.08127 15.8207 7.66287 13.8696 7.66287C12.7573 7.66287 11.7651 7.14877 11.1175 6.34522L7.55439 8.12679C7.62539 8.40603 7.66312 8.69856 7.66312 8.99989C7.66312 9.27915 7.63072 9.55083 7.56947 9.8114L11.1578 11.6055C11.8058 10.8302 12.7801 10.3369 13.8696 10.3369C15.8207 10.3369 17.4023 11.9185 17.4023 13.8695C17.4023 15.8205 15.8207 17.4021 13.8696 17.4021C11.9186 17.4021 10.337 15.8205 10.337 13.8695C10.337 13.5459 10.3805 13.2325 10.462 12.9347L6.92221 11.1648C6.27593 11.997 5.26576 12.5325 4.13051 12.5325C2.1795 12.5325 0.5979 10.9509 0.5979 8.99989C0.5979 7.04889 2.1795 5.46729 4.13051 5.46729C5.24306 5.46729 6.23549 5.98159 6.88302 6.78542L10.4459 5.00398C10.3748 4.72455 10.337 4.43182 10.337 4.13026ZM6.01775 9.75622C5.99801 9.78486 5.98004 9.81521 5.96404 9.84721C5.94294 9.88939 5.9262 9.93262 5.91363 9.97637C5.5682 10.6058 4.89919 11.0325 4.13051 11.0325C3.00793 11.0325 2.0979 10.1225 2.0979 8.99989C2.0979 7.87732 3.00793 6.96729 4.13051 6.96729C5.25309 6.96729 6.16312 7.87732 6.16312 8.99989C6.16312 9.26719 6.11152 9.52244 6.01775 9.75622ZM11.837 13.8695C11.837 12.7469 12.7471 11.8369 13.8696 11.8369C14.9922 11.8369 15.9023 12.7469 15.9023 13.8695C15.9023 14.9921 14.9922 15.9021 13.8696 15.9021C12.7471 15.9021 11.837 14.9921 11.837 13.8695Z" fill="#8B8B8B"/>
</svg>
